<?xml version="1.0" encoding="UTF-8"?>
<svg width="150" height="160" viewBox="60 85 150 160"
     xmlns="http://www.w3.org/2000/svg"
     role="img" aria-label="Two rounded four-point stars, tightly cropped">

  <title>Diagonal Rounded Four-Point Stars (Cropped)</title>

  <g fill="currentColor">

    <!-- Large star -->
    <path d="M 122.31 121.61
             L 128.56 139.44
             Q 135.56 159.44 155.56 166.44
             L 173.39 172.69
             Q 180.00 175.00 173.39 177.31
             L 155.56 183.56
             Q 135.56 190.56 128.56 210.56
             L 122.31 228.39
             Q 120.00 235.00 117.69 228.39
             L 111.44 210.56
             Q 104.44 190.56 84.44 183.56
             L 66.61 177.31
             Q 60.00 175.00 66.61 172.69
             L 84.44 166.44
             Q 104.44 159.44 111.44 139.44
             L 117.69 121.61
             Q 120.00 115.00 122.31 121.61
             Z" />

    <!-- Small star (moved slightly down and right) -->
    <g transform="translate(6 10)">
      <path d="M 175.09 82.08
               L 177.90 89.86
               Q 181.20 98.80 190.14 102.10
               L 197.92 104.91
               Q 201.00 106.00 197.92 107.09
               L 190.14 109.90
               Q 181.20 113.20 177.90 122.14
               L 175.09 129.92
               Q 174.00 133.00 172.91 129.92
               L 170.10 122.14
               Q 166.80 113.20 157.86 109.90
               L 150.08 107.09
               Q 147.00 106.00 150.08 104.91
               L 157.86 102.10
               Q 166.80 98.80 170.10 89.86
               L 172.91 82.08
               Q 174.00 79.00 175.09 82.08
               Z" />
    </g>

  </g>
</svg>
